<svg width="128" height="128" viewBox="0 0 128 128" fill="none" xmlns="http://www.w3.org/2000/svg">
<rect width="128" height="128" fill="black"/>
<g filter="url(#filter0_i_2_9)">
<path d="M41.7778 52.7724C6.30022 93.8799 35.5105 102.747 81.3014 52.7724V84.1887H41.7778C60.6367 82.8139 77.2553 11.665 41.7778 52.7724Z" fill="#525252"/>
</g>
<path d="M61.2564 83.9202H59.5624L58.0224 79.7622H51.5984L50.0584 83.9202H48.3864L53.8864 69.4002H55.7784L61.2564 83.9202ZM52.1484 78.2662H57.4724L54.8104 70.9402L52.1484 78.2662ZM67.6809 84.1402C66.8009 84.1402 65.9942 83.9128 65.2609 83.4582C64.5422 83.0035 63.9629 82.3508 63.5229 81.5002C63.0975 80.6348 62.8849 79.6082 62.8849 78.4202C62.8849 77.2028 63.1122 76.1688 63.5669 75.3182C64.0215 74.4675 64.6229 73.8222 65.3709 73.3822C66.1189 72.9275 66.9329 72.7002 67.8129 72.7002C68.7075 72.7002 69.4849 72.9495 70.1449 73.4482C70.8049 73.9322 71.2449 74.5848 71.4649 75.4062L71.2669 75.5382V67.8602H72.8509V83.9202H71.4649L71.3109 81.1482L71.5309 81.0382C71.4282 81.6982 71.1862 82.2628 70.8049 82.7322C70.4235 83.1868 69.9615 83.5388 69.4189 83.7882C68.8762 84.0228 68.2969 84.1402 67.6809 84.1402ZM67.8569 82.7542C68.5315 82.7542 69.1255 82.5782 69.6389 82.2262C70.1522 81.8595 70.5482 81.3388 70.8269 80.6642C71.1202 79.9895 71.2669 79.1975 71.2669 78.2882C71.2669 77.4082 71.1202 76.6602 70.8269 76.0442C70.5482 75.4135 70.1595 74.9295 69.6609 74.5922C69.1622 74.2548 68.5902 74.0862 67.9449 74.0862C66.8595 74.0862 66.0089 74.4822 65.3929 75.2742C64.7769 76.0515 64.4689 77.1002 64.4689 78.4202C64.4689 79.7402 64.7695 80.7962 65.3709 81.5882C65.9722 82.3655 66.8009 82.7542 67.8569 82.7542ZM78.4722 72.9202V83.9202H76.8882V72.9202H78.4722ZM77.7902 70.8082C77.3942 70.8082 77.0715 70.6908 76.8222 70.4562C76.5875 70.2068 76.4702 69.8842 76.4702 69.4882C76.4702 69.0922 76.5875 68.7768 76.8222 68.5422C77.0715 68.2928 77.3942 68.1682 77.7902 68.1682C78.1862 68.1682 78.5015 68.2928 78.7362 68.5422C78.9855 68.7768 79.1102 69.0922 79.1102 69.4882C79.1102 69.8842 78.9855 70.2068 78.7362 70.4562C78.5015 70.6908 78.1862 70.8082 77.7902 70.8082ZM84.7831 69.8182V80.9062C84.7831 81.4928 84.9298 81.9328 85.2231 82.2262C85.5165 82.5195 85.9051 82.6662 86.3891 82.6662C86.7998 82.6662 87.1445 82.5928 87.4231 82.4462C87.7165 82.2995 87.9805 82.1015 88.2151 81.8522L88.7431 83.1722C88.4205 83.4802 88.0465 83.7222 87.6211 83.8982C87.1958 84.0595 86.7118 84.1402 86.1691 84.1402C85.3478 84.1402 84.6438 83.9128 84.0571 83.4582C83.4851 83.0035 83.1991 82.2482 83.1991 81.1922V70.2582L84.7831 69.8182ZM88.5671 72.9202V74.2842H81.1311V72.9202H88.5671ZM92.6734 72.9202V83.9202H91.0894V72.9202H92.6734ZM91.9914 70.8082C91.5954 70.8082 91.2727 70.6908 91.0234 70.4562C90.7887 70.2068 90.6714 69.8842 90.6714 69.4882C90.6714 69.0922 90.7887 68.7768 91.0234 68.5422C91.2727 68.2928 91.5954 68.1682 91.9914 68.1682C92.3874 68.1682 92.7027 68.2928 92.9374 68.5422C93.1867 68.7768 93.3114 69.0922 93.3114 69.4882C93.3114 69.8842 93.1867 70.2068 92.9374 70.4562C92.7027 70.6908 92.3874 70.8082 91.9914 70.8082Z" fill="white"/>
<defs>
<filter id="filter0_i_2_9" x="26" y="40" width="72.3014" height="47.0087" filterUnits="userSpaceOnUse" color-interpolation-filters="sRGB">
<feFlood flood-opacity="0" result="BackgroundImageFix"/>
<feBlend mode="normal" in="SourceGraphic" in2="BackgroundImageFix" result="shape"/>
<feColorMatrix in="SourceAlpha" type="matrix" values="0 0 0 0 0 0 0 0 0 0 0 0 0 0 0 0 0 0 127 0" result="hardAlpha"/>
<feOffset dx="17"/>
<feGaussianBlur stdDeviation="17"/>
<feComposite in2="hardAlpha" operator="arithmetic" k2="-1" k3="1"/>
<feColorMatrix type="matrix" values="0 0 0 0 0 0 0 0 0 0 0 0 0 0 0 0 0 0 0.25 0"/>
<feBlend mode="normal" in2="shape" result="effect1_innerShadow_2_9"/>
</filter>
</defs>
</svg>
