<svg width="128" height="128" viewBox="0 0 128 128" fill="none" xmlns="http://www.w3.org/2000/svg">
<rect width="128" height="128" rx="64" fill="black"/>
<g filter="url(#filter0_i_2_9)">
<path d="M32.7778 47.7724C-2.69978 88.8799 26.5105 97.7468 72.3014 47.7724V79.1887H32.7778C51.6367 77.8139 68.2553 6.66496 32.7778 47.7724Z" fill="#525252"/>
</g>
<path d="M26.52 71.94V85.25C26.52 85.778 26.6007 86.174 26.762 86.438C26.9233 86.702 27.2313 86.834 27.686 86.834C27.9353 86.834 28.1407 86.812 28.302 86.768C28.4633 86.724 28.676 86.6433 28.94 86.526L28.72 87.912C28.5293 88.0147 28.2947 88.088 28.016 88.132C27.752 88.1907 27.4953 88.22 27.246 88.22C26.366 88.22 25.7573 87.9487 25.42 87.406C25.0973 86.8633 24.936 86.1667 24.936 85.316V71.94H26.52ZM32.7525 77V88H31.1685V77H32.7525ZM32.0705 74.888C31.6745 74.888 31.3519 74.7707 31.1025 74.536C30.8679 74.2867 30.7505 73.964 30.7505 73.568C30.7505 73.172 30.8679 72.8567 31.1025 72.622C31.3519 72.3727 31.6745 72.248 32.0705 72.248C32.4665 72.248 32.7819 72.3727 33.0165 72.622C33.2659 72.8567 33.3905 73.172 33.3905 73.568C33.3905 73.964 33.2659 74.2867 33.0165 74.536C32.7819 74.7707 32.4665 74.888 32.0705 74.888ZM36.7974 88V77H38.1834L38.2934 78.87C38.6601 78.166 39.1661 77.6453 39.8114 77.308C40.4568 76.956 41.1388 76.78 41.8574 76.78C42.6494 76.78 43.3828 76.9707 44.0574 77.352C44.7321 77.7187 45.2308 78.2907 45.5534 79.068C45.7734 78.5547 46.0888 78.1293 46.4994 77.792C46.9248 77.4547 47.3941 77.2053 47.9074 77.044C48.4208 76.868 48.9194 76.78 49.4034 76.78C50.1074 76.78 50.7674 76.9267 51.3834 77.22C51.9994 77.5133 52.4981 77.968 52.8794 78.584C53.2754 79.2 53.4734 79.9847 53.4734 80.938V88H51.8894V81.092C51.8894 80.0653 51.6328 79.3247 51.1194 78.87C50.6061 78.4007 49.9754 78.166 49.2274 78.166C48.6408 78.166 48.0981 78.3127 47.5994 78.606C47.1008 78.8993 46.6974 79.3247 46.3894 79.882C46.0814 80.4393 45.9274 81.1067 45.9274 81.884V88H44.3434V81.092C44.3434 80.0653 44.0868 79.3247 43.5734 78.87C43.0601 78.4007 42.4294 78.166 41.6814 78.166C41.1828 78.166 40.6768 78.3053 40.1634 78.584C39.6501 78.848 39.2248 79.266 38.8874 79.838C38.5501 80.41 38.3814 81.1433 38.3814 82.038V88H36.7974ZM58.985 77V88H57.401V77H58.985ZM58.303 74.888C57.907 74.888 57.5843 74.7707 57.335 74.536C57.1003 74.2867 56.983 73.964 56.983 73.568C56.983 73.172 57.1003 72.8567 57.335 72.622C57.5843 72.3727 57.907 72.248 58.303 72.248C58.699 72.248 59.0143 72.3727 59.249 72.622C59.4983 72.8567 59.623 73.172 59.623 73.568C59.623 73.964 59.4983 74.2867 59.249 74.536C59.0143 74.7707 58.699 74.888 58.303 74.888ZM65.2959 73.898V84.986C65.2959 85.5727 65.4425 86.0127 65.7359 86.306C66.0292 86.5993 66.4179 86.746 66.9019 86.746C67.3125 86.746 67.6572 86.6727 67.9359 86.526C68.2292 86.3793 68.4932 86.1813 68.7279 85.932L69.2559 87.252C68.9332 87.56 68.5592 87.802 68.1339 87.978C67.7085 88.1393 67.2245 88.22 66.6819 88.22C65.8605 88.22 65.1565 87.9927 64.5699 87.538C63.9979 87.0833 63.7119 86.328 63.7119 85.272V74.338L65.2959 73.898ZM69.0799 77V78.364H61.6439V77H69.0799ZM73.0981 71.94V85.25C73.0981 85.778 73.1788 86.174 73.3401 86.438C73.5015 86.702 73.8095 86.834 74.2641 86.834C74.5135 86.834 74.7188 86.812 74.8801 86.768C75.0415 86.724 75.2541 86.6433 75.5181 86.526L75.2981 87.912C75.1075 88.0147 74.8728 88.088 74.5941 88.132C74.3301 88.1907 74.0735 88.22 73.8241 88.22C72.9441 88.22 72.3355 87.9487 71.9981 87.406C71.6755 86.8633 71.5141 86.1667 71.5141 85.316V71.94H73.0981ZM82.1027 88.22C81.1053 88.22 80.218 87.9927 79.4407 87.538C78.678 87.0833 78.0767 86.4307 77.6367 85.58C77.1967 84.7147 76.9767 83.688 76.9767 82.5C76.9767 81.312 77.1893 80.2927 77.6147 79.442C78.0547 78.5767 78.6487 77.9167 79.3967 77.462C80.1593 77.0073 81.0247 76.78 81.9927 76.78C82.9753 76.78 83.8113 77 84.5007 77.44C85.19 77.88 85.718 78.4813 86.0847 79.244C86.4513 80.0067 86.6347 80.872 86.6347 81.84C86.6347 82.0747 86.6273 82.28 86.6127 82.456C86.598 82.632 86.5833 82.786 86.5687 82.918H78.0107V81.51H85.8647L85.0507 81.686C85.0507 80.938 84.9187 80.3073 84.6547 79.794C84.4053 79.266 84.046 78.8627 83.5767 78.584C83.122 78.3053 82.5867 78.166 81.9707 78.166C81.2667 78.166 80.6507 78.342 80.1227 78.694C79.6093 79.046 79.2133 79.5447 78.9347 80.19C78.656 80.8353 78.5167 81.6053 78.5167 82.5C78.5167 83.3947 78.6633 84.1647 78.9567 84.81C79.25 85.4553 79.6607 85.954 80.1887 86.306C80.7313 86.658 81.362 86.834 82.0807 86.834C82.8433 86.834 83.474 86.6727 83.9727 86.35C84.486 86.0127 84.8893 85.5727 85.1827 85.03L86.4367 85.756C86.1727 86.2547 85.828 86.6947 85.4027 87.076C84.992 87.4427 84.508 87.7287 83.9507 87.934C83.3933 88.1247 82.7773 88.22 82.1027 88.22ZM93.6023 88.22C92.5756 88.22 91.637 87.9927 90.7863 87.538C89.9356 87.0833 89.2903 86.438 88.8503 85.602L90.1703 84.634C90.4636 85.338 90.911 85.8807 91.5123 86.262C92.1283 86.6433 92.8616 86.834 93.7123 86.834C94.475 86.834 95.0763 86.6727 95.5163 86.35C95.971 86.0273 96.1983 85.602 96.1983 85.074C96.1983 84.7367 96.0956 84.436 95.8903 84.172C95.685 83.8933 95.2963 83.688 94.7243 83.556L92.2603 83.006C91.2336 82.7713 90.5003 82.4047 90.0603 81.906C89.6203 81.4073 89.4003 80.784 89.4003 80.036C89.4003 79.4493 89.5616 78.914 89.8843 78.43C90.2216 77.9313 90.6983 77.5353 91.3143 77.242C91.9303 76.934 92.649 76.78 93.4703 76.78C94.497 76.78 95.3623 77 96.0663 77.44C96.785 77.8653 97.313 78.474 97.6503 79.266L96.3523 80.124C96.1176 79.4347 95.729 78.936 95.1863 78.628C94.6436 78.32 94.0716 78.166 93.4703 78.166C92.957 78.166 92.5096 78.2467 92.1283 78.408C91.747 78.5547 91.4536 78.7673 91.2483 79.046C91.0576 79.31 90.9623 79.618 90.9623 79.97C90.9623 80.3073 91.0723 80.6227 91.2923 80.916C91.527 81.2093 91.945 81.422 92.5463 81.554L95.1203 82.126C96.103 82.346 96.7923 82.6833 97.1883 83.138C97.5843 83.5927 97.7823 84.1647 97.7823 84.854C97.7823 85.8807 97.3936 86.702 96.6163 87.318C95.8536 87.9193 94.849 88.22 93.6023 88.22ZM104.667 88.22C103.64 88.22 102.701 87.9927 101.851 87.538C101 87.0833 100.355 86.438 99.9148 85.602L101.235 84.634C101.528 85.338 101.975 85.8807 102.577 86.262C103.193 86.6433 103.926 86.834 104.777 86.834C105.539 86.834 106.141 86.6727 106.581 86.35C107.035 86.0273 107.263 85.602 107.263 85.074C107.263 84.7367 107.16 84.436 106.955 84.172C106.749 83.8933 106.361 83.688 105.789 83.556L103.325 83.006C102.298 82.7713 101.565 82.4047 101.125 81.906C100.685 81.4073 100.465 80.784 100.465 80.036C100.465 79.4493 100.626 78.914 100.949 78.43C101.286 77.9313 101.763 77.5353 102.379 77.242C102.995 76.934 103.713 76.78 104.535 76.78C105.561 76.78 106.427 77 107.131 77.44C107.849 77.8653 108.377 78.474 108.715 79.266L107.417 80.124C107.182 79.4347 106.793 78.936 106.251 78.628C105.708 78.32 105.136 78.166 104.535 78.166C104.021 78.166 103.574 78.2467 103.193 78.408C102.811 78.5547 102.518 78.7673 102.313 79.046C102.122 79.31 102.027 79.618 102.027 79.97C102.027 80.3073 102.137 80.6227 102.357 80.916C102.591 81.2093 103.009 81.422 103.611 81.554L106.185 82.126C107.167 82.346 107.857 82.6833 108.253 83.138C108.649 83.5927 108.847 84.1647 108.847 84.854C108.847 85.8807 108.458 86.702 107.681 87.318C106.918 87.9193 105.913 88.22 104.667 88.22Z" fill="white"/>
<defs>
<filter id="filter0_i_2_9" x="17" y="35" width="72.3014" height="47.0087" filterUnits="userSpaceOnUse" color-interpolation-filters="sRGB">
<feFlood flood-opacity="0" result="BackgroundImageFix"/>
<feBlend mode="normal" in="SourceGraphic" in2="BackgroundImageFix" result="shape"/>
<feColorMatrix in="SourceAlpha" type="matrix" values="0 0 0 0 0 0 0 0 0 0 0 0 0 0 0 0 0 0 127 0" result="hardAlpha"/>
<feOffset dx="17"/>
<feGaussianBlur stdDeviation="17"/>
<feComposite in2="hardAlpha" operator="arithmetic" k2="-1" k3="1"/>
<feColorMatrix type="matrix" values="0 0 0 0 0 0 0 0 0 0 0 0 0 0 0 0 0 0 0.25 0"/>
<feBlend mode="normal" in2="shape" result="effect1_innerShadow_2_9"/>
</filter>
</defs>
</svg>
